<?xml version="1.0" encoding="utf-8"?>
<!-- Generator: Adobe Illustrator 22.1.0, SVG Export Plug-In . SVG Version: 6.00 Build 0)  -->
<svg version="1.1" id="Layer_1" xmlns="http://www.w3.org/2000/svg" xmlns:xlink="http://www.w3.org/1999/xlink" x="0px" y="0px"
	 viewBox="0 0 100 87" style="enable-background:new 0 0 100 87;" xml:space="preserve">
<g>
	<path d="M89.6,34.2c-6.1-3.7-14.1-1.7-17.8,4.4c-1.5,2.4-2,5.2-1.8,7.8l-6-0.1c-4.1-9.8-10.7-22.7-19.7-29.6v-15h-1.7v13.8
		c-0.8-0.6-1.7-1.1-2.6-1.5V1.7h-1.7v11.5c-0.5-0.2-1.1-0.4-1.6-0.6l1.6,2.9v26.3H40V18.6l2.6,4.6v18.6h1.7V26.3l8.5,15.4
		c1.5-0.8,3.5-0.9,5.1,0.1c2.4,1.5,3.2,4.6,1.7,7s-4.6,3.2-7,1.7c-1.6-1-2.5-2.7-2.5-4.5l-33.2-0.7c9.6,9.5,29.1,9.7,42.5,8.4
		l2.9,5.3c-2.4,1-4.6,2.8-6.1,5.2c-3.7,6.1-1.7,14.1,4.4,17.8s14.1,1.7,17.8-4.4s1.7-14.1-4.4-17.8c-1.9-1.1-3.9-1.7-6-1.8
		c-0.4-1.2-0.9-2.9-1.7-5.1c2.2-0.3,4.1-0.6,5.3-0.9c1.1,1.8,2.5,3.3,4.4,4.5c6.1,3.7,14.1,1.7,17.8-4.4
		C97.7,45.9,95.7,37.9,89.6,34.2z M72.4,62.6c4.6,2.8,6.1,8.7,3.3,13.3c-2.8,4.6-8.7,6.1-13.3,3.3c-4.6-2.8-6.1-8.7-3.3-13.3
		C61.9,61.3,67.9,59.8,72.4,62.6z M91.2,50.3c-2.8,4.6-8.7,6.1-13.3,3.3c-4.6-2.8-6.1-8.7-3.3-13.3c2.8-4.6,8.7-6.1,13.3-3.3
		S93.9,45.7,91.2,50.3z"/>
	<rect x="25.5" y="1.7" width="1.7" height="40.1"/>
	<rect x="21.2" y="1.7" width="1.7" height="40.1"/>
	<rect x="16.9" y="1.7" width="1.7" height="40.1"/>
	<rect x="12.7" y="1.7" width="1.7" height="75.8"/>
	<rect x="29.7" y="1.7" width="1.7" height="40.1"/>
	<rect x="34" y="1.7" width="1.7" height="40.1"/>
	<rect x="8.4" y="1.7" width="1.7" height="75.8"/>
	<rect x="4.1" y="1.7" width="1.7" height="75.8"/>
</g>
</svg>
